<svg width="113" height="107" viewBox="0 0 113 107" fill="none" xmlns="http://www.w3.org/2000/svg">
<path d="M89.8999 95.7C91.8999 95.3 93.5666 94.3333 94.8999 92.8C96.2332 91.2667 96.8999 88.6667 96.8999 85V76.4C95.4332 77.4 93.5999 78.2333 91.3999 78.9C89.1999 79.5 86.8999 79.8 84.4999 79.8C77.5666 79.8 71.9999 77.9 67.7999 74.1C63.6666 70.3 61.5999 65.0333 61.5999 58.3V31H70.6999V58C70.6999 62.2667 71.8999 65.4667 74.2999 67.6C76.6999 69.7333 80.0999 70.8 84.4999 70.8C87.8999 70.8 90.6332 70.2333 92.6999 69.1C94.8332 67.9 96.2332 66.4333 96.8999 64.7V31H106V85.4C106 90.5333 104.933 94.5333 102.8 97.4C100.733 100.267 97.3332 101.967 92.5999 102.5L89.8999 95.7Z" fill="#CDBE93"/>
<path d="M22.5 11.3C20.5 11.7 18.8333 12.6667 17.5 14.2C16.1667 15.7333 15.5 18.3333 15.5 22V30.6C16.9667 29.6 18.8 28.7667 21 28.1C23.2 27.5 25.5 27.2 27.9 27.2C34.8333 27.2 40.4 29.1 44.6 32.9C48.7333 36.7 50.8 41.9667 50.8 48.7V76H41.7V49C41.7 44.7333 40.5 41.5333 38.1 39.4C35.7 37.2667 32.3 36.2 27.9 36.2C24.5 36.2 21.7667 36.7667 19.7 37.9C17.5667 39.1 16.1667 40.5667 15.5 42.3V76H6.4V21.6C6.4 16.4667 7.46666 12.4667 9.6 9.6C11.6667 6.73333 15.0667 5.03333 19.8 4.5L22.5 11.3Z" fill="#CDBE93"/>
<path d="M6.3499 80.475H11.0499C12.9332 80.475 14.3666 80.9917 15.3499 82.025C16.3499 83.0583 16.8499 84.4333 16.8499 86.15V93C16.8499 96.3333 15.0832 98 11.5499 98H6.3499V80.475ZM14.0999 85.9C14.0999 84.9833 13.8666 84.3167 13.3999 83.9C12.9499 83.4667 12.2499 83.25 11.2999 83.25H9.0999V95.475H11.1499C12.0499 95.475 12.7666 95.3417 13.2999 95.075C13.8332 94.7917 14.0999 94.1833 14.0999 93.25V85.9ZM25.6202 94.871C25.6202 95.263 25.7252 95.571 25.9352 95.795C26.1592 96.005 26.4812 96.11 26.9012 96.11C27.5452 96.11 28.4062 95.83 29.4842 95.27L30.3242 97.265C29.8202 97.587 29.2462 97.832 28.6022 98C27.9582 98.168 27.3142 98.252 26.6702 98.252C25.6342 98.252 24.8082 98 24.1922 97.496C23.5902 96.978 23.2892 96.208 23.2892 95.186V90.881C23.2892 89.747 23.6392 88.865 24.3392 88.235C25.0532 87.605 25.9912 87.29 27.1532 87.29C28.3152 87.29 29.2182 87.605 29.8622 88.235C30.5202 88.851 30.8492 89.712 30.8492 90.818V94.01L25.6202 94.283V94.871ZM28.5182 90.86C28.5182 90.44 28.3852 90.118 28.1192 89.894C27.8532 89.67 27.5242 89.558 27.1322 89.558C26.6002 89.558 26.2152 89.698 25.9772 89.978C25.7392 90.258 25.6202 90.566 25.6202 90.902V92.162L28.5182 91.973V90.86ZM37.8757 95.102C37.8757 95.354 38.0017 95.592 38.2537 95.816C38.5197 96.04 38.9187 96.152 39.4507 96.152C39.9127 96.152 40.2697 96.04 40.5217 95.816C40.7737 95.578 40.8997 95.305 40.8997 94.997C40.8997 94.563 40.7387 94.241 40.4167 94.031C40.1087 93.821 39.6047 93.59 38.9047 93.338C38.3027 93.142 37.8057 92.946 37.4137 92.75C37.0217 92.554 36.6717 92.26 36.3637 91.868C36.0557 91.476 35.8737 90.965 35.8177 90.335C35.7757 89.859 35.8667 89.383 36.0907 88.907C36.3287 88.417 36.7207 88.018 37.2667 87.71C37.8267 87.388 38.5407 87.227 39.4087 87.227C39.8567 87.227 40.2487 87.276 40.5847 87.374C40.9347 87.458 41.2077 87.549 41.4037 87.647C41.5997 87.745 41.7187 87.808 41.7607 87.836L41.0887 89.978C41.0607 89.95 40.9837 89.901 40.8577 89.831C40.7457 89.747 40.5637 89.67 40.3117 89.6C40.0597 89.53 39.7587 89.495 39.4087 89.495C38.6527 89.495 38.2747 89.705 38.2747 90.125C38.2747 90.209 38.2887 90.293 38.3167 90.377C38.3587 90.573 38.5057 90.741 38.7577 90.881C39.0097 91.007 39.3807 91.161 39.8707 91.343C40.5567 91.595 41.1307 91.847 41.5927 92.099C42.0687 92.337 42.4747 92.701 42.8107 93.191C43.1607 93.667 43.3357 94.283 43.3357 95.039C43.3357 95.613 43.1957 96.152 42.9157 96.656C42.6357 97.146 42.2017 97.545 41.6137 97.853C41.0397 98.161 40.3187 98.315 39.4507 98.315C38.6527 98.315 37.9597 98.182 37.3717 97.916C36.7977 97.636 36.3567 97.272 36.0487 96.824C35.7547 96.376 35.5937 95.879 35.5657 95.333L37.8757 95.102ZM49.9016 85.568C49.5656 85.568 49.2716 85.442 49.0196 85.19C48.7676 84.938 48.6416 84.644 48.6416 84.308C48.6416 83.986 48.7676 83.706 49.0196 83.468C49.2716 83.216 49.5656 83.09 49.9016 83.09C50.2236 83.09 50.5036 83.216 50.7416 83.468C50.9936 83.706 51.1196 83.986 51.1196 84.308C51.1196 84.644 50.9936 84.938 50.7416 85.19C50.5036 85.442 50.2236 85.568 49.9016 85.568ZM48.6836 87.479H50.9936V98H48.6836V87.479ZM60.8083 100.604C61.2843 100.604 61.6553 100.464 61.9213 100.184C62.2013 99.918 62.3413 99.512 62.3413 98.966V97.832C62.2293 97.916 62.0263 98.007 61.7323 98.105C61.4523 98.203 61.0883 98.252 60.6403 98.252C59.4083 98.252 58.4493 97.916 57.7633 97.244C57.0773 96.572 56.7343 95.592 56.7343 94.304V91.175C56.7343 89.943 57.0913 88.991 57.8053 88.319C58.5333 87.633 59.5063 87.29 60.7243 87.29C61.1163 87.29 61.4663 87.339 61.7743 87.437C62.0823 87.521 62.2783 87.612 62.3623 87.71L62.8033 87.479H64.6513V99.344C64.6513 101.388 63.5523 102.41 61.3543 102.41L60.8083 100.604ZM62.3413 91.385C62.3413 90.825 62.2153 90.384 61.9633 90.062C61.7113 89.74 61.2703 89.579 60.6403 89.579C60.0663 89.579 59.6533 89.747 59.4013 90.083C59.1633 90.405 59.0443 90.804 59.0443 91.28V93.989C59.0443 95.347 59.5763 96.026 60.6403 96.026C61.3263 96.026 61.7813 95.802 62.0053 95.354C62.2293 94.906 62.3413 94.171 62.3413 93.149V91.385ZM75.3034 91.385C75.3034 90.825 75.1424 90.377 74.8204 90.041C74.5124 89.691 74.0924 89.516 73.5604 89.516C73.1264 89.516 72.6574 89.642 72.1534 89.894V98H69.8644V87.479H71.9014L72.1744 87.605C72.7624 87.409 73.3714 87.311 74.0014 87.311C74.7014 87.311 75.3104 87.437 75.8284 87.689C76.3884 87.941 76.8224 88.319 77.1304 88.823C77.4524 89.327 77.6134 89.964 77.6134 90.734V98H75.3034V91.385Z" fill="#CDBE93"/>
</svg>
