<svg width="32" height="32" viewBox="0 0 32 32" fill="none" xmlns="http://www.w3.org/2000/svg">
  <rect width="32" height="32" rx="6" fill="#1e3a5f"/>
  <path d="M7.5 7.5C6.9 7.6 6.5 7.85 6.2 8.25C5.9 8.65 5.75 9.3 5.75 10.2V12.35C6.1 12.1 6.55 11.9 7.1 11.75C7.65 11.6 8.2 11.52 8.8 11.52C10.55 11.52 11.95 12 12.9 12.95C13.85 13.9 14.32 15.2 14.32 16.85V23.5H11.95V17C11.95 15.95 11.65 15.15 11.05 14.6C10.45 14.05 9.6 13.77 8.5 13.77C7.65 13.77 6.97 13.92 6.45 14.22C5.93 14.52 5.6 14.9 5.5 15.35V23.5H3V10.05C3 8.8 3.27 7.8 3.8 7.05C4.33 6.3 5.18 5.88 6.35 5.75L7.5 7.5Z" fill="#CDBE93"/>
  <path d="M25.5 24C26 23.9 26.4 23.65 26.7 23.25C27 22.85 27.15 22.2 27.15 21.3V19.35C26.8 19.6 26.35 19.8 25.8 19.95C25.25 20.1 24.7 20.17 24.1 20.17C22.35 20.17 20.95 19.7 20 18.75C19.05 17.8 18.58 16.5 18.58 14.85V8.5H20.95V14.8C20.95 15.85 21.25 16.65 21.85 17.2C22.45 17.75 23.3 18.02 24.4 18.02C25.25 18.02 25.93 17.87 26.45 17.57C26.97 17.27 27.3 16.9 27.4 16.45V8.5H29.9V21.65C29.9 22.9 29.63 23.9 29.1 24.65C28.57 25.4 27.72 25.82 26.55 25.95L25.5 24Z" fill="#CDBE93"/>
</svg>
